HIERARCHY
ROOT Hips
{
	OFFSET -0.001795 -0.223333 0.028219
	CHANNELS 6 Xposition Yposition Zposition Zrotation Yrotation Xrotation 
	JOINT LeftUpLeg
	{
		OFFSET 0.069520 -0.091406 -0.006815
		CHANNELS 3 Zrotation Yrotation Xrotation
		JOINT LeftLeg
		{
			OFFSET 0.034277 -0.375199 -0.004496
			CHANNELS 3 Zrotation Yrotation Xrotation
			JOINT LeftFoot
			{
				OFFSET -0.013596 -0.397961 -0.043693
				CHANNELS 3 Zrotation Yrotation Xrotation
				JOINT LeftToe
				{
					OFFSET 0.026358 -0.055791 0.119288
					CHANNELS 3 Zrotation Yrotation Xrotation
					End Site
					{
						OFFSET 0.000000 0.000000 0.000000
					}
				}
			}
		}
	}
	JOINT RightUpLeg
	{
		OFFSET -0.067670 -0.090522 -0.004320
		CHANNELS 3 Zrotation Yrotation Xrotation
		JOINT RightLeg
		{
			OFFSET -0.038290 -0.382569 -0.008850
			CHANNELS 3 Zrotation Yrotation Xrotation
			JOINT RightFoot
			{
				OFFSET 0.015774 -0.398415 -0.042312
				CHANNELS 3 Zrotation Yrotation Xrotation
				JOINT RightToe
				{
					OFFSET -0.025372 -0.048144 0.123348
					CHANNELS 3 Zrotation Yrotation Xrotation
					End Site
					{
						OFFSET 0.000000 0.000000 0.000000
					}
				}
			}
		}
	}
	JOINT Spine
	{
		OFFSET -0.002533 0.108963 -0.026696
		CHANNELS 3 Zrotation Yrotation Xrotation
		JOINT Spine1
		{
			OFFSET 0.005487 0.135180 0.001092
			CHANNELS 3 Zrotation Yrotation Xrotation
			JOINT Spine2
			{
				OFFSET 0.001457 0.052922 0.025425
				CHANNELS 3 Zrotation Yrotation Xrotation
				JOINT Neck
				{
					OFFSET -0.002778 0.213870 -0.042857
					CHANNELS 3 Zrotation Yrotation Xrotation
					JOINT Head
					{
						OFFSET 0.005152 0.064970 0.051349
						CHANNELS 3 Zrotation Yrotation Xrotation
						End Site
						{
							OFFSET 0.000000 0.000000 0.000000
						}
					}
				}
				JOINT LeftShoulder
				{
					OFFSET 0.078845 0.121749 -0.034090
					CHANNELS 3 Zrotation Yrotation Xrotation
					JOINT LeftArm
					{
						OFFSET 0.090977 0.030469 -0.008868
						CHANNELS 3 Zrotation Yrotation Xrotation
						JOINT LeftForeArm
						{
							OFFSET 0.259612 -0.012772 -0.027456
							CHANNELS 3 Zrotation Yrotation Xrotation
							JOINT LeftHand
							{
								OFFSET 0.249234 0.008986 -0.001171
								CHANNELS 3 Zrotation Yrotation Xrotation
								End Site
								{
									OFFSET 0.000000 0.000000 0.000000
								}
							}
						}
					}
				}
				JOINT RightShoulder
				{
					OFFSET -0.081759 0.118833 -0.038615
					CHANNELS 3 Zrotation Yrotation Xrotation
					JOINT RightArm
					{
						OFFSET -0.096012 0.032551 -0.009143
						CHANNELS 3 Zrotation Yrotation Xrotation
						JOINT RightForeArm
						{
							OFFSET -0.253742 -0.013329 -0.021401
							CHANNELS 3 Zrotation Yrotation Xrotation
							JOINT RightHand
							{
								OFFSET -0.255298 0.007772 -0.005559
								CHANNELS 3 Zrotation Yrotation Xrotation
								End Site
								{
									OFFSET 0.000000 0.000000 0.000000
								}
							}
						}
					}
				}
			}
		}
	}
}
MOTION
Frames: 6
Frame Time: 0.050000
0.000000 0.945592 0.000000 0.499334 7.413205 4.713435 1.198124 0.198655 3.297794 1.064337 0.117708 -5.308168 -0.153408 4.883490 11.044185 0.000000 0.000000 0.000000 -0.053634 0.202631 -1.910795 1.635808 -0.197719 0.006384 -3.866324 -11.042905 8.721319 0.000000 0.000000 0.000000 1.244222 0.066930 -2.089290 1.670508 -0.844416 0.519838 -2.028397 -0.780722 4.307552 3.123164 -0.738272 -13.063011 0.000000 0.000000 0.000000 -10.588675 -4.473893 0.492564 -15.088354 -0.781279 -1.507868 11.247287 -6.833734 -0.438885 0.000000 0.000000 0.000000 5.016827 3.561209 1.218132 14.590597 -0.741153 -1.525244 -10.451710 7.372288 -0.161668 0.000000 0.000000 0.000000 
-0.000179 0.944091 0.000260 0.485299 7.724270 4.787706 1.106204 0.254026 4.033868 1.376413 0.158480 -6.776975 -0.310867 4.616050 10.942487 0.000000 0.000000 0.000000 -0.345592 0.139134 -1.258132 2.290252 -0.300134 -1.217556 -3.935632 -11.145643 8.529550 0.000000 0.000000 0.000000 1.646553 0.054209 -1.899293 0.887732 -0.505408 1.058480 -1.716315 -0.949839 3.739227 2.184568 0.114938 -15.503538 0.000000 0.000000 0.000000 -8.130142 -5.174923 1.021142 -14.881250 -0.936464 -1.469484 11.289038 -4.859339 -0.311087 0.000000 0.000000 0.000000 3.070827 1.856727 0.571001 14.335242 -1.325852 -1.509686 -10.261535 8.082359 -0.192098 0.000000 0.000000 0.000000 
-0.000606 0.943686 0.000479 0.566625 7.393362 4.679471 1.427045 0.228469 3.960381 0.610001 0.172128 -6.311607 -0.131173 4.801412 10.765464 0.000000 0.000000 0.000000 -0.659138 0.186716 -1.727846 2.671715 -0.326916 -0.163986 -3.864355 -10.973430 8.083159 0.000000 0.000000 0.000000 2.150012 0.024696 -1.410167 0.432800 -0.120832 -1.689013 -1.903773 -0.370836 6.379679 2.865922 -0.327815 -14.995093 0.000000 0.000000 0.000000 -6.682552 -4.780094 0.975179 -13.861667 -2.241949 -1.330106 10.527139 -4.767870 -0.283136 0.000000 0.000000 0.000000 3.113587 1.809691 0.593983 12.936314 -1.650681 -1.454758 -11.900534 6.194109 -0.119315 0.000000 0.000000 0.000000 
-0.001489 0.943188 0.000561 0.571353 8.335695 4.785866 1.634976 0.203455 3.925175 0.616215 0.180693 -6.671399 -0.571862 4.129785 10.648487 0.000000 0.000000 0.000000 -0.550653 0.163813 -1.493817 2.800637 -0.354562 -0.646844 -4.246264 -11.706099 8.159596 0.000000 0.000000 0.000000 1.913637 0.058880 -2.046006 0.451577 -0.183813 -0.725068 -1.657799 -0.966131 6.013300 2.235969 0.049287 -14.973177 0.000000 0.000000 0.000000 -6.470376 -5.289444 1.204120 -12.823460 -2.091742 -1.238445 12.184315 -3.087350 -0.230542 0.000000 0.000000 0.000000 1.826531 2.115866 0.722630 11.523404 -3.239895 -1.327521 -11.154001 4.676725 -0.005798 0.000000 0.000000 0.000000 
-0.003053 0.943426 0.000456 0.666817 8.689872 4.681835 1.610366 0.211807 4.068601 0.762786 0.179352 -6.825571 -0.789623 3.875745 10.805790 0.000000 0.000000 0.000000 -0.455665 0.167469 -1.537519 2.711732 -0.342086 -0.323205 -4.418545 -12.037952 8.159592 0.000000 0.000000 0.000000 1.672955 0.035020 -1.522588 1.010382 -0.388927 -1.542711 -2.022186 -0.687615 5.921036 2.915983 -0.464371 -13.713424 0.000000 0.000000 0.000000 -6.458474 -5.267506 1.138790 -11.290699 -2.704887 -1.047381 11.638775 -2.454579 -0.180406 0.000000 0.000000 0.000000 1.362570 1.272404 0.430616 10.470428 -3.451483 -1.202496 -11.225285 4.290230 0.029662 0.000000 0.000000 0.000000 
-0.005372 0.943335 0.000140 0.581926 9.048769 4.482438 1.394522 0.215767 3.915269 1.676888 0.129869 -6.357009 -0.863938 3.717996 10.614470 0.000000 0.000000 0.000000 -0.222851 0.143085 -1.304666 2.812261 -0.357821 -0.400378 -4.548095 -12.287947 8.180168 0.000000 0.000000 0.000000 1.632531 0.016863 -1.126518 1.360864 -0.611946 -0.668823 -1.880737 -1.011872 4.972055 2.329536 -0.125749 -13.522034 0.000000 0.000000 0.000000 -6.393129 -4.486808 0.843769 -10.650405 -3.530340 -0.945091 12.893125 -1.672047 -0.147134 0.000000 0.000000 0.000000 -0.123690 1.322300 0.475550 10.442582 -3.882867 -1.184455 -11.332934 3.551013 0.077976 0.000000 0.000000 0.000000 
